<?xml version="1.0" encoding="utf-8"?>
<!-- Generator: Adobe Illustrator 16.0.0, SVG Export Plug-In . SVG Version: 6.00 Build 0)  -->
<!DOCTYPE svg PUBLIC "-//W3C//DTD SVG 1.1//EN" "http://www.w3.org/Graphics/SVG/1.1/DTD/svg11.dtd">
<svg version="1.1" id="Layer_1" xmlns="http://www.w3.org/2000/svg" xmlns:xlink="http://www.w3.org/1999/xlink" x="0px" y="0px"
	 width="18.334px" height="18.334px" viewBox="990.833 990.833 18.334 18.334"
	 enable-background="new 990.833 990.833 18.334 18.334" xml:space="preserve">
<title>email</title>
<g>
	<path d="M1000,992.484c2.448,0,2.738,0.01,3.705,0.054c0.894,0.041,1.379,0.19,1.702,0.315c0.428,0.167,0.733,0.365,1.054,0.686
		c0.321,0.321,0.52,0.626,0.686,1.054c0.126,0.323,0.275,0.808,0.315,1.702c0.045,0.967,0.054,1.257,0.054,3.705
		c0,2.447-0.009,2.737-0.054,3.704c-0.04,0.895-0.189,1.379-0.315,1.702c-0.166,0.428-0.364,0.733-0.686,1.055
		c-0.32,0.32-0.626,0.519-1.054,0.686c-0.323,0.125-0.809,0.274-1.702,0.315c-0.967,0.044-1.257,0.054-3.705,0.054
		s-2.738-0.01-3.704-0.054c-0.894-0.041-1.379-0.19-1.702-0.315c-0.428-0.167-0.733-0.365-1.054-0.686
		c-0.321-0.321-0.52-0.627-0.686-1.055c-0.126-0.323-0.275-0.808-0.316-1.702c-0.044-0.967-0.053-1.257-0.053-3.704
		c0-2.448,0.009-2.738,0.053-3.704c0.041-0.894,0.19-1.379,0.316-1.702c0.166-0.428,0.365-0.733,0.686-1.054s0.626-0.52,1.054-0.686
		c0.323-0.125,0.809-0.274,1.702-0.315C997.263,992.494,997.553,992.484,1000,992.484 M1000,990.833c-2.489,0-2.802,0.01-3.78,0.055
		c-0.976,0.045-1.642,0.2-2.225,0.427c-0.603,0.234-1.114,0.547-1.624,1.057c-0.51,0.51-0.823,1.021-1.057,1.624
		c-0.227,0.583-0.382,1.25-0.426,2.226c-0.044,0.978-0.055,1.29-0.055,3.779c0,2.489,0.011,2.802,0.055,3.779
		c0.044,0.977,0.2,1.643,0.426,2.226c0.234,0.603,0.547,1.114,1.057,1.624c0.51,0.509,1.021,0.822,1.624,1.057
		c0.583,0.227,1.25,0.382,2.225,0.426c0.978,0.045,1.291,0.056,3.78,0.056c2.49,0,2.802-0.011,3.78-0.056
		c0.976-0.044,1.642-0.199,2.225-0.426c0.604-0.234,1.114-0.548,1.624-1.057c0.51-0.51,0.823-1.021,1.058-1.624
		c0.227-0.583,0.381-1.249,0.426-2.226c0.045-0.978,0.056-1.29,0.056-3.779c0-2.49-0.011-2.802-0.056-3.779
		c-0.045-0.976-0.199-1.643-0.426-2.226c-0.234-0.603-0.548-1.114-1.058-1.624c-0.51-0.509-1.021-0.823-1.624-1.057
		c-0.583-0.227-1.249-0.382-2.225-0.427C1002.803,990.843,1002.49,990.833,1000,990.833L1000,990.833z"/>
	<path d="M1000,995.292c-2.6,0-4.708,2.108-4.708,4.708s2.107,4.707,4.708,4.707s4.708-2.107,4.708-4.707
		S1002.601,995.292,1000,995.292z M1000,1003.056c-1.688,0-3.056-1.368-3.056-3.056s1.368-3.056,3.056-3.056
		c1.688,0,3.056,1.368,3.056,3.056S1001.688,1003.056,1000,1003.056z"/>
	<path d="M1005.994,995.106c0,0.607-0.492,1.1-1.1,1.1c-0.608,0-1.101-0.493-1.101-1.1s0.492-1.1,1.101-1.1
		C1005.502,994.006,1005.994,994.499,1005.994,995.106z"/>
</g>
</svg>
